<?xml version="1.0" encoding="utf-8"?>
<!-- Generator: Adobe Illustrator 26.3.1, SVG Export Plug-In . SVG Version: 6.00 Build 0)  -->
<svg version="1.1" id="Layer_1" xmlns="http://www.w3.org/2000/svg" xmlns:xlink="http://www.w3.org/1999/xlink" x="0px" y="0px"
	 viewBox="0 0 500 500" style="enable-background:new 0 0 500 500;" xml:space="preserve">
<!--<style type="text/css">-->
<!--	.st0{fill:#FFFFFF;}-->
<!--</style>-->
<path class="st0" fill="#FFFFFF" d="M58.05,499.5c-4.28,0-7.77-1.34-10.08-3.87c-2.41-2.63-3.46-6.42-3.05-10.95c3.4-37.56,6.77-75.14,10.14-112.71
	c7.01-78.24,14.03-156.48,21.31-234.68c1.11-6.38,5.42-10.04,12.37-10.07c9.09-0.05,18.14-0.06,27.17-0.06l43.6,0.02l-0.82-7.13
	c-4.04-35.31,5.03-68.33,24.89-90.6C200.78,10.18,224.83,0,253.15,0c2.25,0,4.52,0.06,6.83,0.19
	c64.84,8.74,88.06,68.25,81.99,119.84l-0.84,7.15l68.83,0.01c9.71,0.01,13.85,3.7,14.75,13.13c2.93,31.87,5.77,63.78,8.61,95.69
	c2.42,27.16,4.84,54.32,7.31,81.48c1.97,21.7,3.9,43.41,5.82,65.12c3,33.89,6,67.78,9.19,101.65c0.47,4.8-0.57,8.74-3,11.42
	c-2.26,2.5-5.74,3.81-10.06,3.82l-190.48,0.03C187.41,499.53,122.73,499.52,58.05,499.5z M69.92,475.19h360.77l-29.06-323.73h-58.78
	l-0.65,5.67c-0.54,4.68-0.36,9.92-0.16,15.47c0.76,21.37-0.99,29.07-12.29,29.76c-3.31-0.15-6.14-1.2-8.01-3.22
	c-4.87-5.25-4.38-17.28-3.97-27.89c0.2-4.95,0.38-9.63,0.07-13.8l-0.44-5.92H183.23l-0.41,5.96c-0.28,4.06-0.1,8.62,0.09,13.44
	c0.4,10.27,0.9,23.05-4.06,28.32c-1.88,2-4.72,3.01-8.68,3.1c-10.73-0.8-12.42-8.74-11.5-30.67c0.21-5.14,0.42-9.99,0.05-14.34
	l-0.49-5.87H98.98L69.92,475.19z M250.47,24.3c-23.46,0-45.01,11.93-57.64,31.9c-10.49,16.58-10.24,34.04-10.01,50.93
	c0.06,4.39,0.13,8.8-0.01,13.2l-0.2,6.6h134.66l0.52-5.84c4.58-51.29-12.94-84.82-49.32-94.42C262.56,25.1,256.51,24.3,250.47,24.3z
	"/>
</svg>
