<?xml version="1.0" encoding="utf-8"?>
<!-- Generator: Adobe Illustrator 26.3.1, SVG Export Plug-In . SVG Version: 6.00 Build 0)  -->
<svg version="1.1" id="Layer_1" xmlns="http://www.w3.org/2000/svg" xmlns:xlink="http://www.w3.org/1999/xlink" x="0px" y="0px"
	 viewBox="0 0 500 500" style="enable-background:new 0 0 500 500;" xml:space="preserve">
<!--<style type="text/css">-->
<!--	.st0{fill:#FFFFFF;}-->
<!--</style>-->
<g>
	<path class="st0" fill="#FFFFFF" d="M499.93,120.09c0,3.91,0,7.81,0,11.72c-0.34,1.06-0.73,2.11-1.03,3.19c-3.99,14.15-12.86,23.84-27.27,26.97
		c-6.44,1.4-13.43,0.24-20.33,0.24c0,105.85,0,211.82,0,318.18c11.99,0,23.68,0.25,35.36-0.11c6.02-0.19,10.4,1.66,13.28,6.94
		c0,1.95,0,3.91,0,5.86c-2.88,5.27-7.27,6.94-13.27,6.93c-157.8-0.12-315.59-0.1-473.39-0.1c-0.81,0-1.63,0.02-2.44-0.01
		c-6.36-0.17-10.64-3.98-10.76-9.57c-0.12-5.77,4.27-9.89,10.86-9.93c11.06-0.08,22.12-0.02,33.19-0.02c1.55,0,3.1,0,4.48,0
		c0-106.85,0-212.95,0-319.36c-11.48,3.31-22.07,2.14-31.7-4.26c-12.14-8.07-17.93-19.71-16.63-34.14
		c1.32-14.64,9.17-25.24,22.86-30.84c59.06-24.19,118.19-48.19,177.26-72.32C215.99,13.07,231.5,6.49,247.05,0c1.95,0,3.91,0,5.86,0
		c10.15,4.27,20.26,8.62,30.44,12.79c64.01,26.22,128.03,52.42,192.07,78.56c8.09,3.3,14.88,8.16,19.13,15.85
		C496.79,111.25,498.17,115.78,499.93,120.09z M431.22,362.45c0.11-1.16,0.23-1.8,0.23-2.45c0.01-67.67-0.02-135.34,0.11-203.01
		c0.01-3.2-1.47-4.09-3.92-5.09c-58.02-23.72-116-47.52-174.05-71.15c-2.09-0.85-5.12-0.85-7.21,0
		c-57.52,23.21-114.96,46.63-172.47,69.86c-3.99,1.61-5.54,3.46-5.53,8.04c0.19,66.04,0.13,132.09,0.13,198.13c0,1.77,0,3.53,0,5.6
		c26.42,0,52.48,0,78.51,0c3.31-55.34,47.82-96.42,100.38-97.69c56.67-1.37,102.87,42.72,105.64,97.77
		C378.96,362.45,404.9,362.45,431.22,362.45z M166.91,480.11c55.49,0,110.69,0,166.02,0c0.14-0.86,0.32-1.47,0.32-2.09
		c-0.04-38.54,0.74-77.11-0.36-115.63c-1.4-49.14-49.73-86.41-97.95-76.79c-40.79,8.14-68.05,41.23-68.22,83.15
		c-0.15,35.45-0.03,70.91-0.02,106.36C166.69,476.7,166.82,478.29,166.91,480.11z M19.58,126.73c0.1,0.59,0.21,2.06,0.58,3.46
		c2.9,11,13.64,15.76,25.23,11.05c65.75-26.7,131.5-53.4,197.21-80.22c4.78-1.95,9.04-2.46,14-0.41
		c43.82,18.12,87.72,36.05,131.6,54.04c22.24,9.12,44.47,18.26,66.73,27.32c8.44,3.44,16.03,1.8,21.31-4.36
		c8.22-9.59,4.17-23.07-8.67-28.33C396.33,80.1,325.08,50.94,253.78,21.94c-2.22-0.9-5.46-0.79-7.71,0.12
		c-40.96,16.52-81.85,33.25-122.75,49.92C92.8,84.42,62.26,96.85,31.73,109.3C23.82,112.53,19.62,118.32,19.58,126.73z
		 M146.81,480.11c0-13.1,0-25.85,0-38.54c-26.24,0-52.13,0-78.05,0c0,13.05,0,25.66,0,38.54
		C94.8,480.11,120.58,480.11,146.81,480.11z M431.19,480.14c0-13.22,0-25.83,0-38.64c-26.16,0-52.04,0-78.02,0
		c0,13.1,0,25.85,0,38.64C379.32,480.14,405.11,480.14,431.19,480.14z M147.15,421.35c0-11.65-0.18-22.83,0.09-33.99
		c0.1-4.14-1.28-5.16-5.24-5.13c-22.73,0.17-45.47,0.08-68.21,0.09c-1.58,0-3.17,0.14-4.99,0.23c0,13.08,0,25.81,0,38.8
		C94.86,421.35,120.61,421.35,147.15,421.35z M352.83,421.33c26.56,0,52.32,0,78.32,0c0-13.02,0-25.74,0-39.02
		c-2.69,0-5.09,0-7.49,0c-22.09,0-44.17-0.02-66.26,0.03c-1.91,0-4.57-0.85-4.57,2.64C352.83,396.96,352.83,408.94,352.83,421.33z"
		/>
	<path class="st0" fill="#FFFFFF" d="M356.68,177.63c-1.88,5.63-5.08,11.22-5.25,16.9c-0.17,5.52,3.78,11.07,4.14,16.71
		c0.94,14.45-8.51,27.36-22.31,32c-13.78,4.63-28.77-0.15-37.08-12.21c-1.89-2.74-3.72-3.81-7.03-3.8
		c-26.19,0.13-52.38,0.13-78.57,0c-3.15-0.02-4.87,1-6.64,3.59c-9.74,14.21-28.38,18.3-43.21,9.74
		c-14.84-8.57-20.77-26.79-13.48-42.24c1.38-2.93,1.4-5.12,0.01-8.06c-7.31-15.43-1.39-33.65,13.46-42.24
		c14.61-8.45,33.26-4.56,42.92,9.35c2.16,3.11,4.32,4.05,7.9,4.03c25.7-0.14,51.41-0.13,77.11,0c3.39,0.02,5.48-0.8,7.53-3.8
		c8.26-12.12,23.26-16.9,37.05-12.27C347.03,149.98,356.11,162.85,356.68,177.63z M336.21,178.13c0.01-8-4.4-13.4-10.82-14.74
		c-6.1-1.28-12.37,2.25-14.88,8.37c-3.34,8.18-4.67,9.11-13.37,9.11c-31.4,0.01-62.81,0.01-94.21,0c-8.77,0-10.22-0.99-13.47-8.98
		c-2.96-7.29-10.58-10.62-17.59-7.68c-6.93,2.91-10.45,11.11-6.83,17.89c4.49,8.39,4.37,16.14-0.03,24.54
		c-3.86,7.36,0.41,15.82,8.38,18.23c6.9,2.08,13.57-1.36,16.2-8.72c1.83-5.12,4.71-8.36,10.53-8.36c33.19,0.04,66.39,0.03,99.58,0
		c5.24,0,8.44,2.45,10.24,7.34c3.27,8.84,10.81,12.51,18.35,9.18c7.55-3.33,9.98-11.47,5.7-19.79c-3.55-6.91-3.54-13.64,0.04-20.52
		C335.21,181.73,335.83,179.19,336.21,178.13z"/>
</g>
</svg>
