<?xml version="1.0" encoding="utf-8"?>
<!-- Generator: Adobe Illustrator 26.3.1, SVG Export Plug-In . SVG Version: 6.00 Build 0)  -->
<svg version="1.1" id="Layer_1" xmlns="http://www.w3.org/2000/svg" xmlns:xlink="http://www.w3.org/1999/xlink" x="0px" y="0px"
	 viewBox="0 0 100 100" style="enable-background:new 0 0 100 100;" xml:space="preserve">
<!--<style type="text/css">-->
<!--	.st0{fill:#FE4B00;}-->
<!--	.st1{fill:#FF7816;}-->
<!--</style>-->
<g>
	<path class="st0" fill="#FE4B00" d="M45.53,9.39H0l0,52.69c0,3.17,0.5,6.33,1.56,9.31c5.27,14.74,17.37,20.74,35.62,18.88l0-19.48h-9.2
		c-4.91,0-8.89-3.98-8.89-8.89v-6.99h26.44V9.39z"/>
	<path class="st1" fill="#FF7816" d="M100,9.39H54.47l0,52.69c0,3.17,0.5,6.33,1.56,9.31c5.27,14.74,17.37,20.74,35.62,18.88l0-19.48h-9.2
		c-4.91,0-8.89-3.98-8.89-8.89v-6.99H100V9.39z"/>
</g>
</svg>
