<svg xmlns="http://www.w3.org/2000/svg" width="36" height="36" viewBox="0 0 36 36">
  <g id="Group_35381" data-name="Group 35381" transform="translate(-3878.5 10262.5)">
    <g id="Group_35380" data-name="Group 35380" transform="translate(3877.5 -10264.5)">
      <g id="Icons" transform="translate(-4.5 -4.5)">
        <g id="Icons_20_">
          <g id="Group_35379" data-name="Group 35379">
            <g id="Group_35378" data-name="Group 35378">
              <path id="Path_37333" data-name="Path 37333" d="M25.152,22.209c0-.5-.008-1,0-1.5.006-.228-.067-.313-.3-.311q-1.842.013-3.685,0c-.225,0-.309.06-.309.3q.009,6.788,0,13.576c0,.235.075.306.3.3q1.927-.013,3.854,0c.234,0,.3-.07.3-.3q-.012-3.224,0-6.448a14.033,14.033,0,0,1,.1-1.591,2.7,2.7,0,0,1,.657-1.558A2.368,2.368,0,0,1,27.992,24a1.868,1.868,0,0,1,1.939,1.465,6.634,6.634,0,0,1,.2,1.917q0,3.43,0,6.861c0,.319.01.33.324.33h3.758c.39,0,.393,0,.391-.386-.011-2.771-.019-5.542-.039-8.312a9.389,9.389,0,0,0-.353-2.506,4.032,4.032,0,0,0-2.258-2.808,6.163,6.163,0,0,0-4-.325A4.643,4.643,0,0,0,25.152,22.209ZM18.183,27.5c0-2.262,0-4.525.006-6.787,0-.246-.065-.319-.31-.317q-1.915.016-3.83,0c-.239,0-.32.065-.319.315q.01,6.775,0,13.55c0,.247.076.319.318.317q1.915-.015,3.83,0c.242,0,.313-.066.312-.315C18.179,32.01,18.183,29.756,18.183,27.5ZM13.392,16a2.576,2.576,0,0,0,2.568,2.578A2.577,2.577,0,1,0,13.392,16Z" fill="#fff"/>
            </g>
          </g>
        </g>
      </g>
      <rect id="Rectangle_6552" data-name="Rectangle 6552" width="35" height="35" rx="2" transform="translate(1.5 2.5)" fill="none" stroke="#fff" stroke-linecap="round" stroke-width="1"/>
    </g>
  </g>
</svg>
