<svg xmlns="http://www.w3.org/2000/svg" xmlns:xlink="http://www.w3.org/1999/xlink" width="10.02" height="10.02" viewBox="0 0 10.02 10.02">
  <defs>
    <clipPath id="clip-path">
      <rect id="Rectangle_8051" data-name="Rectangle 8051" width="10.02" height="10.02" fill="#fff"/>
    </clipPath>
  </defs>
  <g id="Mask_Group_444" data-name="Mask Group 444" clip-path="url(#clip-path)">
    <g id="YouTube-Logo.wine" transform="translate(-0.001 1.5)">
      <path id="Subtraction_45" data-name="Subtraction 45" d="M-6282.991,18324.512a29.391,29.391,0,0,1-3.918-.217,1.253,1.253,0,0,1-.883-.883,13.235,13.235,0,0,1-.207-2.41,13.282,13.282,0,0,1,.207-2.41,1.276,1.276,0,0,1,.883-.887,30.724,30.724,0,0,1,3.918-.207,30.176,30.176,0,0,1,3.918.211,1.258,1.258,0,0,1,.883.883,12.231,12.231,0,0,1,.207,2.418,13.288,13.288,0,0,1-.207,2.412,1.258,1.258,0,0,1-.883.883A30.757,30.757,0,0,1-6282.991,18324.512Zm-1-5.008v3l2.607-1.5-2.607-1.5Z" transform="translate(6288 -18317.496)" fill="#fff"/>
    </g>
  </g>
</svg>
